<?xml version="1.0" standalone="no"?>
<!DOCTYPE svg PUBLIC "-//W3C//DTD SVG 20010904//EN"
 "http://www.w3.org/TR/2001/REC-SVG-20010904/DTD/svg10.dtd">
<svg version="1.0" xmlns="http://www.w3.org/2000/svg"
 width="512.000000pt" height="512.000000pt" viewBox="0 0 512.000000 512.000000"
 preserveAspectRatio="xMidYMid meet">
<metadata>
Created by potrace 1.11, written by Peter Selinger 2001-2013
</metadata>
<g transform="translate(0.000000,512.000000) scale(0.100000,-0.100000)"
fill="#000000" stroke="none">
<path d="M905 4555 c-60 -30 -57 10 -56 -824 l2 -766 28 -35 c25 -32 33 -35
86 -38 52 -3 61 0 86 24 l29 28 0 543 c0 299 4 543 8 543 10 0 52 -56 52 -69
0 -5 4 -11 8 -13 5 -1 116 -158 247 -348 132 -190 243 -346 247 -348 4 -2 8
-9 8 -15 0 -7 11 -24 25 -39 14 -15 25 -30 25 -34 0 -9 73 -108 82 -112 5 -2
8 -10 8 -18 0 -8 5 -14 10 -14 6 0 10 -5 10 -11 0 -10 13 -29 60 -86 6 -7 10
-16 10 -20 0 -4 20 -20 44 -35 36 -24 54 -28 112 -28 49 0 77 5 94 17 39 26
80 75 80 94 0 10 5 21 10 24 7 4 10 265 10 750 0 485 -3 746 -10 750 -5 3 -10
13 -10 22 0 8 -15 28 -32 44 -27 23 -42 29 -82 29 -44 0 -53 -4 -87 -40 l-39
-41 -2 -643 -3 -643 -130 188 c-71 104 -133 189 -137 189 -5 0 -8 5 -8 11 0
13 -69 112 -82 117 -4 2 -8 8 -8 14 0 12 -90 141 -102 146 -4 2 -8 8 -8 14 0
12 -70 111 -82 116 -5 2 -8 10 -8 18 0 8 -3 14 -8 14 -4 0 -16 16 -26 35 -11
19 -23 35 -28 35 -4 0 -8 7 -8 15 0 8 -4 15 -10 15 -5 0 -10 7 -10 15 0 8 -4
15 -9 15 -5 0 -12 8 -15 18 -3 9 -19 33 -36 52 -16 19 -30 41 -30 48 0 6 -4
12 -8 12 -4 0 -16 15 -27 33 -10 17 -21 34 -25 37 -3 3 -30 40 -60 83 -77 113
-132 144 -195 112z"/>
<path d="M2939 4539 c-31 -28 -34 -34 -33 -89 1 -51 5 -64 40 -111 21 -30 42
-55 46 -57 5 -2 8 -9 8 -15 0 -7 16 -30 35 -52 19 -22 35 -45 35 -52 0 -7 3
-13 8 -13 4 0 21 -21 37 -45 17 -25 33 -45 38 -45 4 0 7 -6 7 -12 0 -11 38
-65 80 -115 5 -7 10 -17 10 -23 0 -5 4 -10 8 -10 4 0 15 -12 24 -27 9 -16 25
-37 35 -48 10 -11 24 -32 31 -46 12 -23 29 -45 72 -96 5 -7 10 -16 10 -22 0
-5 3 -11 8 -13 4 -1 19 -20 35 -40 l27 -37 0 -319 c0 -348 1 -357 57 -393 78
-52 174 -2 193 101 6 31 10 183 10 350 -2 352 -4 312 18 336 9 10 64 82 122
159 58 77 107 142 110 145 3 3 59 77 125 165 66 88 127 168 136 178 9 10 20
32 23 49 17 88 -57 162 -143 143 -42 -9 -57 -25 -166 -170 -53 -72 -102 -137
-108 -145 -7 -8 -26 -33 -42 -55 -16 -22 -32 -42 -35 -45 -3 -3 -39 -49 -80
-104 -98 -129 -96 -126 -106 -126 -5 0 -27 27 -49 60 -22 33 -43 60 -47 60 -5
0 -8 5 -8 11 0 12 -70 112 -82 117 -5 2 -8 8 -8 13 0 6 -5 15 -10 22 -42 50
-80 104 -80 115 0 6 -3 12 -7 12 -5 0 -21 21 -38 45 -16 25 -33 45 -37 45 -5
0 -8 6 -8 13 0 10 -38 64 -80 114 -5 7 -10 15 -10 19 0 4 -18 24 -39 46 -35
34 -45 38 -88 38 -41 0 -55 -5 -84 -31z"/>
<path d="M517 2290 c-23 -26 -27 -39 -27 -94 0 -36 5 -68 10 -71 6 -3 10 -17
10 -30 0 -13 5 -27 10 -30 6 -3 10 -17 10 -30 0 -13 5 -27 10 -30 6 -3 10 -16
10 -29 0 -12 7 -31 15 -42 8 -10 15 -29 15 -41 0 -12 5 -25 10 -28 6 -3 10
-17 10 -30 0 -13 5 -27 10 -30 6 -3 10 -17 10 -30 0 -13 5 -27 10 -30 6 -3 10
-14 10 -24 0 -10 7 -32 15 -47 8 -16 15 -37 15 -46 0 -10 5 -18 10 -18 6 0 10
-13 10 -29 0 -17 5 -33 10 -36 6 -3 10 -16 10 -29 0 -12 4 -26 8 -31 4 -6 16
-35 26 -65 11 -30 23 -59 27 -65 5 -5 9 -21 9 -36 0 -15 5 -31 10 -34 6 -3 10
-15 10 -26 0 -10 4 -27 9 -37 5 -9 17 -37 26 -62 9 -25 21 -53 26 -62 5 -10 9
-25 9 -33 0 -8 4 -23 9 -33 5 -9 16 -39 25 -67 22 -73 41 -124 49 -131 4 -4 7
-18 7 -30 0 -13 5 -26 10 -29 6 -3 10 -17 10 -30 0 -13 5 -27 10 -30 6 -3 10
-15 10 -25 0 -27 36 -85 62 -99 46 -24 114 -18 149 12 30 26 39 46 49 107 7
43 43 156 61 192 5 10 9 26 9 36 0 10 4 22 8 27 5 6 22 51 37 100 16 50 32 94
37 100 4 5 8 19 8 31 0 13 4 25 9 28 5 3 11 18 14 33 2 16 33 107 66 203 34
96 69 198 78 225 8 28 19 58 24 67 5 10 9 27 9 39 0 18 2 19 15 9 8 -7 15 -20
15 -29 0 -9 7 -29 15 -45 8 -15 15 -37 15 -47 0 -11 5 -19 10 -19 6 0 10 -13
10 -29 0 -17 5 -33 10 -36 6 -3 10 -15 10 -26 0 -10 4 -27 9 -37 5 -9 17 -37
26 -62 9 -25 21 -53 26 -62 5 -10 9 -29 9 -43 0 -14 5 -25 10 -25 6 0 10 -11
10 -25 0 -14 4 -33 9 -43 5 -9 17 -37 26 -62 9 -25 21 -53 26 -62 5 -10 9 -25
9 -33 0 -8 4 -23 9 -33 5 -9 16 -39 25 -67 22 -73 41 -124 49 -131 4 -4 7 -18
7 -30 0 -13 5 -26 10 -29 6 -3 10 -17 10 -30 0 -13 5 -27 10 -30 6 -3 10 -15
10 -25 0 -27 47 -125 70 -145 23 -21 109 -24 143 -6 27 15 57 60 57 88 0 18
31 123 49 168 11 27 69 199 88 260 8 28 19 58 24 67 5 10 9 27 9 37 0 11 4 22
8 25 5 3 17 33 27 68 10 35 22 67 27 73 4 5 8 17 8 27 0 10 4 26 9 36 10 19
44 120 68 197 8 28 19 59 23 70 29 70 60 163 60 177 0 9 5 20 10 23 6 3 10 17
10 30 0 13 5 27 10 30 5 3 10 16 10 29 0 12 4 26 9 31 15 17 41 112 41 150 0
66 -53 115 -125 115 -28 0 -43 -8 -75 -40 -25 -25 -40 -49 -40 -64 0 -14 -4
-28 -10 -31 -6 -3 -10 -15 -10 -26 0 -10 -4 -27 -9 -37 -14 -28 -53 -145 -58
-175 -3 -15 -9 -30 -14 -33 -5 -3 -9 -14 -9 -25 0 -10 -4 -27 -10 -37 -5 -9
-21 -53 -35 -97 -15 -44 -30 -89 -35 -100 -4 -11 -15 -42 -23 -70 -24 -77 -58
-178 -68 -197 -5 -10 -9 -27 -9 -37 0 -11 -4 -23 -10 -26 -6 -3 -10 -16 -10
-29 0 -12 -4 -26 -8 -31 -5 -6 -17 -38 -28 -73 -18 -59 -44 -84 -44 -42 0 11
-4 28 -9 38 -5 9 -16 40 -25 67 -22 73 -41 124 -49 131 -4 4 -7 18 -7 30 0 13
-4 26 -10 29 -5 3 -10 17 -10 30 0 13 -4 27 -10 30 -5 3 -10 14 -10 23 0 9 -7
30 -15 46 -8 15 -15 37 -15 47 0 10 -4 21 -10 24 -5 3 -10 17 -10 30 0 13 -4
27 -10 30 -5 3 -10 17 -10 30 0 13 -3 26 -8 29 -4 2 -16 34 -27 70 -11 36 -23
66 -27 66 -5 0 -8 13 -8 29 0 17 -4 33 -10 36 -5 3 -10 15 -10 26 0 10 -4 27
-9 37 -5 9 -17 37 -26 62 -9 25 -21 53 -26 62 -5 10 -9 27 -9 38 0 11 -4 28
-9 38 -5 9 -16 33 -25 53 -22 50 -54 69 -119 69 -45 0 -59 -4 -81 -26 -14 -15
-26 -35 -26 -45 0 -10 -4 -21 -10 -24 -5 -3 -10 -15 -10 -27 0 -17 -57 -198
-80 -253 -4 -11 -15 -42 -23 -70 -24 -77 -58 -178 -68 -197 -5 -10 -9 -27 -9
-37 0 -11 -4 -23 -10 -26 -5 -3 -10 -16 -10 -29 0 -12 -3 -25 -6 -29 -8 -8
-125 -345 -131 -380 -3 -15 -9 -30 -14 -33 -5 -3 -9 -17 -9 -31 0 -21 -2 -24
-15 -13 -8 7 -15 23 -15 36 0 12 -4 26 -10 29 -5 3 -10 14 -10 23 0 9 -7 30
-15 46 -8 15 -15 37 -15 47 0 10 -4 21 -10 24 -5 3 -10 15 -10 26 0 10 -4 27
-9 37 -5 9 -17 42 -26 72 -10 30 -22 59 -26 65 -5 5 -9 19 -9 31 0 13 -4 26
-10 29 -5 3 -10 17 -10 30 0 13 -4 27 -10 30 -5 3 -10 15 -10 26 0 10 -4 27
-9 37 -23 46 -41 95 -41 112 0 11 -4 20 -10 20 -5 0 -10 13 -10 29 0 17 -4 33
-10 36 -5 3 -10 15 -10 26 0 10 -4 27 -9 37 -5 9 -17 37 -26 62 -9 25 -21 53
-26 62 -5 10 -9 29 -9 43 0 14 -4 25 -10 25 -5 0 -10 11 -10 24 0 31 -43 115
-71 139 -15 12 -39 17 -78 17 -51 0 -61 -3 -84 -30z"/>
<path d="M3230 2310 c0 -5 -6 -10 -14 -10 -8 0 -24 -13 -36 -30 l-21 -30 2
-780 2 -780 26 -29 c36 -39 74 -42 441 -32 296 9 372 16 435 41 17 7 39 16 50
20 101 38 196 100 275 180 78 78 123 142 172 243 4 9 13 26 18 37 6 11 10 29
10 39 0 11 5 23 10 26 6 3 10 24 10 45 0 21 4 42 10 45 6 4 10 72 10 170 0 98
-4 166 -10 170 -5 3 -10 24 -10 45 0 21 -4 42 -10 45 -5 3 -10 15 -10 26 0 23
-49 132 -62 137 -4 2 -8 8 -8 14 0 30 -179 238 -206 238 -7 0 -14 4 -16 8 -4
11 -115 82 -128 82 -6 0 -19 5 -30 10 -11 6 -29 14 -40 20 -27 14 -94 30 -170
42 -91 15 -700 22 -700 8z m655 -240 c3 -5 24 -10 46 -10 21 0 39 -4 39 -10 0
-5 7 -10 15 -10 18 0 129 -51 133 -62 2 -4 8 -8 13 -8 8 0 50 -34 93 -76 50
-48 126 -171 126 -204 0 -10 4 -21 9 -24 32 -20 32 -382 0 -402 -5 -3 -9 -14
-9 -24 0 -21 -46 -109 -73 -141 -9 -10 -17 -22 -17 -25 0 -10 -104 -102 -130
-116 -14 -7 -27 -15 -30 -19 -3 -3 -23 -13 -45 -23 -22 -9 -48 -21 -57 -26
-10 -6 -29 -10 -43 -10 -14 0 -25 -4 -25 -10 0 -6 -95 -10 -265 -10 l-265 0 0
610 0 610 239 0 c149 0 242 -4 246 -10z"/>
</g>
</svg>
