<svg xmlns="http://www.w3.org/2000/svg" xmlns:xlink="http://www.w3.org/1999/xlink" width="140" height="143" viewBox="0 0 140 143">
  <defs>
    <clipPath id="clip-path">
      <rect id="Rettangolo_118" data-name="Rettangolo 118" width="59.982" height="70.71" fill="#fff"/>
    </clipPath>
  </defs>
  <g id="Raggruppa_158" data-name="Raggruppa 158" transform="translate(-1448 -2069)">
    <ellipse id="Ellisse_4" data-name="Ellisse 4" cx="70" cy="71.5" rx="70" ry="71.5" transform="translate(1448 2069)" fill="#69717b"/>
    <g id="Raggruppa_140" data-name="Raggruppa 140" transform="translate(1489.509 2102.242)">
      <g id="Raggruppa_139" data-name="Raggruppa 139" clip-path="url(#clip-path)">
        <path id="Tracciato_2144" data-name="Tracciato 2144" d="M29.992,0A17.138,17.138,0,1,0,47.131,17.138,17.155,17.155,0,0,0,29.992,0Zm0,2.142a15,15,0,1,1-15,15,14.979,14.979,0,0,1,15-15m0,36.419C13.419,38.561,0,52.5,0,69.624A1.071,1.071,0,0,0,1.072,70.7H52.486a1.071,1.071,0,1,0,0-2.142H2.242C2.794,53.056,14.97,40.7,29.991,40.7c15.372,0,27.85,12.915,27.85,28.921a1.071,1.071,0,1,0,2.142,0c0-17.122-13.419-31.063-29.992-31.063Z" fill="#fff"/>
      </g>
    </g>
  </g>
</svg>
