<svg xmlns="http://www.w3.org/2000/svg" xmlns:xlink="http://www.w3.org/1999/xlink" width="140" height="140" viewBox="0 0 140 140">
  <defs>
    <clipPath id="clip-path">
      <rect id="Rettangolo_150" data-name="Rettangolo 150" width="77.938" height="77.789" fill="#fcfcfc"/>
    </clipPath>
  </defs>
  <g id="Raggruppa_161" data-name="Raggruppa 161" transform="translate(-332 -2069)">
    <circle id="Ellisse_1" data-name="Ellisse 1" cx="70" cy="70" r="70" transform="translate(332 2069)" fill="#69717b"/>
    <g id="Raggruppa_143" data-name="Raggruppa 143" transform="translate(226.579 1923.605)">
      <g id="Raggruppa_142" data-name="Raggruppa 142" transform="translate(137.952 178)" clip-path="url(#clip-path)">
        <path id="Tracciato_2200" data-name="Tracciato 2200" d="M12.293,77.789a8.146,8.146,0,0,1-5.742-2.37A22.35,22.35,0,0,1,2.267,49.808,102.258,102.258,0,0,1,50.025,2.324l.456-.182A22.126,22.126,0,0,1,75.545,6.425a8.2,8.2,0,0,1,0,11.575l-9.661,9.569a7.991,7.991,0,0,1-5.742,2.37,7.84,7.84,0,0,1-5.742-2.37l-7.382-7.382A77.479,77.479,0,0,0,20.4,46.8l7.382,7.382a7.99,7.99,0,0,1,2.37,5.742,7.84,7.84,0,0,1-2.37,5.742l-9.752,9.752A8.148,8.148,0,0,1,12.293,77.789ZM59.96,2.232a19.53,19.53,0,0,0-8.476,1.914l-.456.182A100.941,100.941,0,0,0,4.273,50.811,20.129,20.129,0,0,0,8.1,73.779a5.886,5.886,0,0,0,8.294,0l9.57-9.57A5.852,5.852,0,0,0,27.7,60.016a6.014,6.014,0,0,0-1.732-4.193L17.4,47.256l.456-.729A80.24,80.24,0,0,1,46.38,17.908l.273-.091.729-.364L55.95,26.02a5.852,5.852,0,0,0,4.193,1.732,6.013,6.013,0,0,0,4.193-1.732l9.57-9.57a5.886,5.886,0,0,0,0-8.294A19.4,19.4,0,0,0,59.96,2.232Z" transform="translate(0 0)" fill="#fcfcfc"/>
      </g>
    </g>
  </g>
</svg>
