<svg xmlns="http://www.w3.org/2000/svg" xmlns:xlink="http://www.w3.org/1999/xlink" width="140" height="140" viewBox="0 0 140 140">
  <defs>
    <clipPath id="clip-path">
      <rect id="Rettangolo_117" data-name="Rettangolo 117" width="72.742" height="80.281" fill="#fff"/>
    </clipPath>
  </defs>
  <g id="Raggruppa_159" data-name="Raggruppa 159" transform="translate(-1076 -2069)">
    <circle id="Ellisse_3" data-name="Ellisse 3" cx="70" cy="70" r="70" transform="translate(1076 2069)" fill="#69717b"/>
    <g id="Raggruppa_138" data-name="Raggruppa 138" transform="translate(1110.629 2099.203)">
      <g id="Raggruppa_137" data-name="Raggruppa 137" clip-path="url(#clip-path)">
        <path id="Tracciato_2143" data-name="Tracciato 2143" d="M42.4,0a.933.933,0,0,0-.554,1.632l4.08,3.643h-45c-.029,0-.058,0-.087,0A.933.933,0,0,0,0,6.207V47.067A.932.932,0,0,0,.932,48H12.211a4.259,4.259,0,0,0,1.2,2.477h.029a2.235,2.235,0,0,0,.35.291c.143.109.321.264.554.437.465.345,1.085.793,1.836,1.341,1.5,1.094,3.473,2.531,5.42,3.934,3.886,2.8,7.7,5.524,7.723,5.537h.029a4.235,4.235,0,0,0,2.973.786,3.381,3.381,0,0,0,1.981-.932,5.9,5.9,0,0,0,2.944.9c2.368,0,6.222-1.2,10.23-2.74a55.223,55.223,0,0,0,10.317-5.012c.012-.01.017-.022.029-.029a3.838,3.838,0,0,0,1.952-3.176,3.954,3.954,0,0,0-.466-1.894,9.208,9.208,0,0,0-1.2-1.6L57.821,48h7.344a.933.933,0,1,0,0-1.865H56.16L39.636,27.513a.934.934,0,0,0-1.108-.2,27.55,27.55,0,0,1-9.005,2.623,9.085,9.085,0,0,1-4.109-.437,3.06,3.06,0,0,1-1.924-2.273,1.944,1.944,0,0,1,.9-1.545l.058-.029,14.513-7.082,14.426,6.762a.94.94,0,0,0,.408.087H70.877V73.093H26.812l4.08-3.643a.939.939,0,1,0-1.254-1.4l-5.916,5.275a.934.934,0,0,0,0,1.4l5.916,5.246a.933.933,0,1,0,1.254-1.37l-4.08-3.643h45a.932.932,0,0,0,.932-.933V24.481a.932.932,0,0,0-.932-.932H54l-14.63-6.878a.93.93,0,0,0-.554-.087.915.915,0,0,0-.262.087L24.537,23.549H7.2a.852.852,0,0,0-.175,0A.937.937,0,1,0,7.2,25.414H22.118a3.723,3.723,0,0,0-.525,1.924.938.938,0,0,0,.029.233,5.12,5.12,0,0,0,3.06,3.643,10.6,10.6,0,0,0,4.984.554,27.966,27.966,0,0,0,9.005-2.535L56.711,49.545c.007.01-.006.022,0,.029a8.293,8.293,0,0,1,.962,1.254,1.792,1.792,0,0,1,.233.991c0,.738-.169,1-1.137,1.632l-.029.029A54.751,54.751,0,0,1,46.8,58.317c-3.916,1.507-7.9,2.594-9.559,2.594a4.261,4.261,0,0,1-2.069-.641,12.01,12.01,0,0,0-.2-8.627,17.089,17.089,0,0,0-5.712-7.17,16.547,16.547,0,0,0-8.073-3.322,8.546,8.546,0,0,0-7.373,2.536l-.029.028a6.759,6.759,0,0,0-1.37,2.419H1.863V7.141H45.928l-4.08,3.643a.939.939,0,0,0,1.254,1.4l5.916-5.275a.933.933,0,0,0,0-1.4L43.1.263A.933.933,0,0,0,42.4,0ZM20.138,42.986c.28,0,.555,0,.846.029a14.945,14.945,0,0,1,7.169,2.973,15.282,15.282,0,0,1,5.1,6.353,9.993,9.993,0,0,1-.058,7.927,1.2,1.2,0,0,1-1.078.7,2.561,2.561,0,0,1-1.69-.437V60.5S26.6,57.77,22.7,54.964c-1.946-1.4-3.923-2.814-5.421-3.905-.749-.546-1.38-1.031-1.836-1.37-.228-.169-.4-.309-.525-.408-.1-.08-.169-.113-.146-.087l-.029-.029a2.272,2.272,0,0,1-.7-1.953,4.617,4.617,0,0,1,1.136-2.273c.01-.011.019-.018.029-.029a6.287,6.287,0,0,1,4.925-1.924Z" transform="translate(0 0.001)" fill="#fff"/>
      </g>
    </g>
  </g>
</svg>
