<svg xmlns="http://www.w3.org/2000/svg" width="36.258" height="25.5" viewBox="0 0 36.258 25.5">
  <path id="Tracciato_2204" data-name="Tracciato 2204" d="M36.523-21.516a19.461,19.461,0,0,1,.365,1.992q.166,1.2.232,2.357t.1,2.158q.033,1,.033,1.66v.6a38.808,38.808,0,0,1-.73,8.832,4.631,4.631,0,0,1-1.2,1.992A4.6,4.6,0,0,1,33.27-.73a27.455,27.455,0,0,1-4.781.5q-3.52.166-6.441.232H19.125Q7.77,0,4.98-.73A4.341,4.341,0,0,1,1.727-3.918a20.314,20.314,0,0,1-.5-3.486Q1.062-9.629,1-11.156V-12.75a38.406,38.406,0,0,1,.73-8.766,4.6,4.6,0,0,1,1.2-2.059,4.6,4.6,0,0,1,2.059-1.2,27.455,27.455,0,0,1,4.781-.5q3.52-.166,6.441-.232h2.922q11.355,0,14.145.73a4.6,4.6,0,0,1,2.059,1.2A4.6,4.6,0,0,1,36.523-21.516ZM15.406-7.3l9.5-5.445-9.5-5.379Z" transform="translate(-0.996 25.5)" fill="#353c44"/>
</svg>
