<svg xmlns="http://www.w3.org/2000/svg" width="28" height="28" viewBox="0 0 28 28">
  <path id="Tracciato_2201" data-name="Tracciato 2201" d="M6.25,0H.438V-18.687H6.25ZM3.375-21.25A3.245,3.245,0,0,1,1-22.25a3.245,3.245,0,0,1-1-2.375A3.245,3.245,0,0,1,1-27a3.245,3.245,0,0,1,2.375-1A3.245,3.245,0,0,1,5.75-27a3.245,3.245,0,0,1,1,2.375,3.168,3.168,0,0,1-.469,1.656,3.591,3.591,0,0,1-1.25,1.25A3.168,3.168,0,0,1,3.375-21.25ZM28,0H22.188V-9.125q0-1.062-.062-1.719a8.054,8.054,0,0,0-.312-1.5,2.244,2.244,0,0,0-.906-1.281,3.047,3.047,0,0,0-1.719-.437,2.88,2.88,0,0,0-2.781,1.313,7.293,7.293,0,0,0-.719,3.5V0H9.875V-18.687H15.5v2.563h.063a5.486,5.486,0,0,1,2.063-2.156,6.313,6.313,0,0,1,3.438-.906,8.349,8.349,0,0,1,3.531.656,4.584,4.584,0,0,1,2.125,1.938,9.052,9.052,0,0,1,1,2.781A19.6,19.6,0,0,1,28-10.25Z" transform="translate(0 28)" fill="#353c44"/>
</svg>
